<?xml version="1.0" encoding="utf-8"?>
<!-- Generator: Adobe Illustrator 16.0.0, SVG Export Plug-In . SVG Version: 6.00 Build 0)  -->
<!DOCTYPE svg PUBLIC "-//W3C//DTD SVG 1.1//EN" "http://www.w3.org/Graphics/SVG/1.1/DTD/svg11.dtd">
<svg version="1.1" id="Capa_1" xmlns="http://www.w3.org/2000/svg" xmlns:xlink="http://www.w3.org/1999/xlink" x="0px" y="0px"
	 width="595.279px" height="594.601px" viewBox="0 123.305 595.279 594.601" enable-background="new 0 123.305 595.279 594.601"
	 xml:space="preserve">
<g id="alimentació_4_">
	<circle cx="297.3" cy="420.605" r="297.301"/>
	<path fill="#FFFFFF" d="M481.666,319.917H352.406c16.328-36.737,27.213-61.229,0-65.991c-19.729-3.401-49.663,26.533-49.663,26.533
		c2.721,3.401,5.442,6.123,8.164,9.524c10.204-11.565,21.77-19.729,31.294-19.049c21.091,1.36,8.845,22.45-2.721,48.983h-13.606
		c-22.45-42.18-69.393-83.679-106.811-81.638c-45.581,2.721-21.77,36.737,2.041,81.638h-107.49
		c-12.926,0-22.45,12.246-19.049,24.492l21.771,95.245c0.68,4.082,3.401,7.484,6.803,9.525l4.082,2.721l52.385,129.941
		c4.082,12.926,16.327,21.09,29.254,21.09h167.358c12.926,0,24.491-8.164,29.254-19.73l60.548-131.98l5.443-4.082
		c3.401-2.041,5.442-5.443,6.122-8.846l22.451-93.203C504.117,332.163,494.593,319.917,481.666,319.917z"/>
	<polygon points="266.686,466.867 274.169,478.433 266.005,487.277 263.964,485.236 270.087,477.751 263.284,468.908 	"/>
	<polygon points="253.759,494.08 260.563,502.923 253.759,509.726 256.481,512.449 264.645,503.605 256.481,492.039 	"/>
	<polygon points="247.637,468.908 254.44,477.751 247.637,485.236 250.358,487.277 258.522,478.433 250.358,466.867 	"/>
	<polygon points="294.578,468.908 301.382,477.751 295.259,485.236 297.981,487.277 305.463,478.433 297.981,466.867 	"/>
	<polygon points="269.406,494.08 276.21,502.923 269.406,509.726 272.128,512.449 280.292,503.605 272.809,492.039 	"/>
	<polygon points="238.113,494.08 244.915,502.923 238.113,509.726 240.833,512.449 248.997,503.605 240.833,492.039 	"/>
	<polygon points="186.407,517.21 183.687,519.251 189.81,528.095 183.687,534.898 186.407,537.621 194.572,528.095 	"/>
	<polygon points="278.931,468.908 285.735,477.751 279.612,485.236 281.653,487.277 289.817,478.433 282.333,466.867 	"/>
	<polygon points="231.99,468.908 238.792,477.751 231.99,485.236 234.71,487.277 242.874,478.433 234.71,466.867 	"/>
	<polygon points="191.17,494.08 197.293,502.923 191.17,509.726 193.891,512.449 202.055,503.605 193.891,492.039 	"/>
	<polygon points="222.465,494.08 228.587,502.923 222.465,509.726 225.186,512.449 233.35,503.605 225.186,492.039 	"/>
	<polygon points="300.701,494.08 307.504,502.923 301.382,509.726 303.422,512.449 311.586,503.605 304.103,492.039 	"/>
	<polygon points="185.047,468.908 191.17,477.751 185.047,485.236 187.769,487.277 195.932,478.433 187.769,466.867 	"/>
	<polygon points="216.342,468.908 223.145,477.751 216.342,485.236 219.063,487.277 227.227,478.433 219.063,466.867 	"/>
	<polygon points="206.818,494.08 212.941,502.923 206.818,509.726 209.538,512.449 217.702,503.605 209.538,492.039 	"/>
	<polygon points="200.695,468.908 206.818,477.751 200.695,485.236 203.415,487.277 211.579,478.433 203.415,466.867 	"/>
	<polygon points="285.054,494.08 291.858,502.923 285.735,509.726 287.776,512.449 295.94,503.605 288.455,492.039 	"/>
	<polygon points="407.512,487.277 415.675,478.433 407.512,466.867 404.79,468.908 410.913,477.751 404.79,485.236 	"/>
	<polygon points="310.906,468.908 317.029,477.751 310.906,485.236 313.627,487.277 321.791,478.433 313.627,466.867 	"/>
	<polygon points="389.143,468.908 395.266,477.751 389.143,485.236 391.865,487.277 400.029,478.433 391.865,466.867 	"/>
	<polygon points="379.618,494.08 385.741,502.923 379.618,509.726 382.34,512.449 390.503,503.605 382.34,492.039 	"/>
	<polygon points="395.266,494.08 401.389,502.923 395.266,509.726 397.988,512.449 406.151,503.605 397.988,492.039 	"/>
	<path d="M274.85,319.917c3.401-6.123,7.483-12.926,11.565-19.049c3.401,4.082,6.122,8.164,8.844,12.246
		c-1.36,2.041-2.041,4.762-3.401,6.803h12.245c-12.245-27.213-43.54-56.466-67.352-55.106c-29.254,2.041-11.565,25.172,4.082,55.106
		H274.85z"/>
	<polygon points="172.121,466.867 169.4,468.908 175.523,477.751 169.4,485.236 172.121,487.277 180.284,478.433 	"/>
	<polygon points="178.244,492.039 175.523,494.08 181.646,502.923 175.523,509.726 178.244,512.449 186.407,503.605 	"/>
	<polygon points="373.495,468.908 379.618,477.751 373.495,485.236 376.217,487.277 384.381,478.433 376.217,466.867 	"/>
	<polygon points="326.554,468.908 332.676,477.751 326.554,485.236 329.275,487.277 337.439,478.433 329.275,466.867 	"/>
	<polygon points="363.971,494.08 370.094,502.923 363.971,509.726 366.693,512.449 374.857,503.605 366.693,492.039 	"/>
	<polygon points="332.676,494.08 338.799,502.923 332.676,509.726 335.398,512.449 343.562,503.605 335.398,492.039 	"/>
	<polygon points="317.029,494.08 323.152,502.923 317.029,509.726 319.75,512.449 327.914,503.605 319.75,492.039 	"/>
	<polygon points="357.848,468.908 363.971,477.751 357.848,485.236 360.57,487.277 368.734,478.433 360.57,466.867 	"/>
	<polygon points="342.2,468.908 348.323,477.751 342.2,485.236 344.922,487.277 353.086,478.433 344.922,466.867 	"/>
	<polygon points="348.323,494.08 354.447,502.923 348.323,509.726 351.045,512.449 359.209,503.605 351.045,492.039 	"/>
	<polygon points="189.81,544.423 195.932,553.267 189.81,560.07 192.531,562.792 200.695,553.267 192.531,542.382 	"/>
	<polygon points="378.258,544.423 384.381,553.267 378.258,560.07 380.979,562.792 389.143,553.267 380.979,542.382 	"/>
	<polygon points="327.914,517.21 324.513,519.251 331.316,528.095 324.513,534.898 327.234,537.621 335.398,528.095 	"/>
	<polygon points="374.857,517.21 371.454,519.251 378.258,528.095 372.135,534.898 374.857,537.621 383.02,528.095 	"/>
	<polygon points="362.611,544.423 368.734,553.267 362.611,560.07 365.331,562.792 373.495,553.267 365.331,542.382 	"/>
	<polygon points="331.316,544.423 337.439,553.267 331.316,560.07 334.037,562.792 342.2,553.267 334.037,542.382 	"/>
	<polygon points="343.562,517.21 340.16,519.251 346.963,528.095 340.84,534.898 342.881,537.621 351.045,528.095 	"/>
	<polygon points="346.963,544.423 353.086,553.267 346.963,560.07 349.685,562.792 357.848,553.267 349.685,542.382 	"/>
	<polygon points="359.209,517.21 355.807,519.251 362.611,528.095 356.488,534.898 358.529,537.621 366.693,528.095 	"/>
	<polygon points="420.438,468.908 426.561,477.751 420.438,485.236 423.159,487.277 431.323,478.433 423.159,466.867 	"/>
	<path d="M442.888,446.457H155.793c-2.721,0-5.442,2.041-5.442,5.443c0,2.721,2.041,5.441,5.442,5.441h287.095
		c2.722,0,5.443-2.041,5.443-5.441C448.331,449.179,445.61,446.457,442.888,446.457z"/>
	<polygon points="390.503,517.21 387.782,519.251 393.906,528.095 387.782,534.898 390.503,537.621 398.667,528.095 	"/>
	<polygon points="410.913,494.08 417.036,502.923 410.913,509.726 413.634,512.449 421.798,503.605 413.634,492.039 	"/>
	<polygon points="393.906,544.423 400.029,553.267 393.906,560.07 396.626,562.792 404.79,553.267 396.626,542.382 	"/>
	<polygon points="403.43,519.251 409.553,528.095 403.43,534.898 406.151,537.621 414.315,528.095 406.151,517.21 	"/>
	<polygon points="233.35,517.21 230.628,519.251 236.751,528.095 230.628,534.898 233.35,537.621 241.514,528.095 	"/>
	<polygon points="236.751,544.423 243.555,553.267 236.751,560.07 239.473,562.792 247.637,553.267 239.473,542.382 	"/>
	<polygon points="315.668,544.423 321.791,553.267 315.668,560.07 318.39,562.792 326.554,553.267 318.39,542.382 	"/>
	<polygon points="248.997,517.21 246.276,519.251 252.399,528.095 246.276,534.898 248.997,537.621 257.161,528.095 	"/>
	<polygon points="217.702,517.21 214.982,519.251 221.104,528.095 214.982,534.898 217.702,537.621 225.866,528.095 	"/>
	<polygon points="205.456,544.423 211.579,553.267 205.456,560.07 208.178,562.792 216.342,553.267 208.178,542.382 	"/>
	<polygon points="252.399,544.423 259.202,553.267 253.079,560.07 255.12,562.792 263.284,553.267 255.8,542.382 	"/>
	<polygon points="221.104,544.423 227.907,553.267 221.104,560.07 223.825,562.792 231.99,553.267 223.825,542.382 	"/>
	<polygon points="202.055,517.21 199.334,519.251 205.456,528.095 199.334,534.898 202.055,537.621 210.219,528.095 	"/>
	<polygon points="300.021,544.423 306.144,553.267 300.021,560.07 302.742,562.792 310.906,553.267 302.742,542.382 	"/>
	<polygon points="264.645,517.21 261.923,519.251 268.046,528.095 261.923,534.898 264.645,537.621 272.809,528.095 	"/>
	<polygon points="311.586,517.21 308.865,519.251 315.668,528.095 308.865,534.898 311.586,537.621 319.75,528.095 	"/>
	<polygon points="295.94,517.21 293.218,519.251 300.021,528.095 293.218,534.898 295.94,537.621 304.103,528.095 	"/>
	<polygon points="268.046,544.423 274.85,553.267 268.727,560.07 270.768,562.792 278.931,553.267 271.448,542.382 	"/>
	<polygon points="283.694,544.423 290.496,553.267 284.374,560.07 287.095,562.792 294.578,553.267 287.095,542.382 	"/>
	<polygon points="280.292,517.21 277.571,519.251 283.694,528.095 277.571,534.898 280.292,537.621 288.455,528.095 	"/>
</g>
</svg>
