<?xml version="1.0" encoding="utf-8"?>
<!-- Generator: Adobe Illustrator 22.0.0, SVG Export Plug-In . SVG Version: 6.00 Build 0)  -->
<svg version="1.1" id="Capa_1" xmlns="http://www.w3.org/2000/svg" xmlns:xlink="http://www.w3.org/1999/xlink" x="0px" y="0px"
	 viewBox="0 0 595.3 594.6" style="enable-background:new 0 0 595.3 594.6;" xml:space="preserve">
<style type="text/css">
	.st0{fill:none;}
	.st1{fill:#FFFFFF;}
	.st2{fill:#25849E;}
</style>
<g id="alimentació_4_">
	<circle class="st0" cx="297.3" cy="297.3" r="297.3"/>
	<path class="st1" d="M481.7,196.6H352.4c16.3-36.7,27.2-61.2,0-66c-19.7-3.4-49.7,26.5-49.7,26.5c2.7,3.4,5.4,6.1,8.2,9.5
		c10.2-11.6,21.8-19.7,31.3-19c21.1,1.4,8.8,22.5-2.7,49h-13.6c-22.5-42.2-69.4-83.7-106.8-81.6c-45.6,2.7-21.8,36.7,2,81.6H113.6
		c-12.9,0-22.5,12.2-19,24.5l21.8,95.2c0.7,4.1,3.4,7.5,6.8,9.5l4.1,2.7l52.4,129.9c4.1,12.9,16.3,21.1,29.3,21.1h167.4
		c12.9,0,24.5-8.2,29.3-19.7l60.5-132l5.4-4.1c3.4-2,5.4-5.4,6.1-8.8l22.5-93.2C504.1,208.9,494.6,196.6,481.7,196.6z"/>
	<polygon class="st2" points="266.7,343.6 274.2,355.1 266,364 264,361.9 270.1,354.4 263.3,345.6 	"/>
	<polygon class="st2" points="253.8,370.8 260.6,379.6 253.8,386.4 256.5,389.1 264.6,380.3 256.5,368.7 	"/>
	<polygon class="st2" points="247.6,345.6 254.4,354.4 247.6,361.9 250.4,364 258.5,355.1 250.4,343.6 	"/>
	<polygon class="st2" points="294.6,345.6 301.4,354.4 295.3,361.9 298,364 305.5,355.1 298,343.6 	"/>
	<polygon class="st2" points="269.4,370.8 276.2,379.6 269.4,386.4 272.1,389.1 280.3,380.3 272.8,368.7 	"/>
	<polygon class="st2" points="238.1,370.8 244.9,379.6 238.1,386.4 240.8,389.1 249,380.3 240.8,368.7 	"/>
	<polygon class="st2" points="186.4,393.9 183.7,395.9 189.8,404.8 183.7,411.6 186.4,414.3 194.6,404.8 	"/>
	<polygon class="st2" points="278.9,345.6 285.7,354.4 279.6,361.9 281.7,364 289.8,355.1 282.3,343.6 	"/>
	<polygon class="st2" points="232,345.6 238.8,354.4 232,361.9 234.7,364 242.9,355.1 234.7,343.6 	"/>
	<polygon class="st2" points="191.2,370.8 197.3,379.6 191.2,386.4 193.9,389.1 202.1,380.3 193.9,368.7 	"/>
	<polygon class="st2" points="222.5,370.8 228.6,379.6 222.5,386.4 225.2,389.1 233.4,380.3 225.2,368.7 	"/>
	<polygon class="st2" points="300.7,370.8 307.5,379.6 301.4,386.4 303.4,389.1 311.6,380.3 304.1,368.7 	"/>
	<polygon class="st2" points="185,345.6 191.2,354.4 185,361.9 187.8,364 195.9,355.1 187.8,343.6 	"/>
	<polygon class="st2" points="216.3,345.6 223.1,354.4 216.3,361.9 219.1,364 227.2,355.1 219.1,343.6 	"/>
	<polygon class="st2" points="206.8,370.8 212.9,379.6 206.8,386.4 209.5,389.1 217.7,380.3 209.5,368.7 	"/>
	<polygon class="st2" points="200.7,345.6 206.8,354.4 200.7,361.9 203.4,364 211.6,355.1 203.4,343.6 	"/>
	<polygon class="st2" points="285.1,370.8 291.9,379.6 285.7,386.4 287.8,389.1 295.9,380.3 288.5,368.7 	"/>
	<polygon class="st2" points="407.5,364 415.7,355.1 407.5,343.6 404.8,345.6 410.9,354.4 404.8,361.9 	"/>
	<polygon class="st2" points="310.9,345.6 317,354.4 310.9,361.9 313.6,364 321.8,355.1 313.6,343.6 	"/>
	<polygon class="st2" points="389.1,345.6 395.3,354.4 389.1,361.9 391.9,364 400,355.1 391.9,343.6 	"/>
	<polygon class="st2" points="379.6,370.8 385.7,379.6 379.6,386.4 382.3,389.1 390.5,380.3 382.3,368.7 	"/>
	<polygon class="st2" points="395.3,370.8 401.4,379.6 395.3,386.4 398,389.1 406.2,380.3 398,368.7 	"/>
	<path class="st2" d="M274.9,196.6c3.4-6.1,7.5-12.9,11.6-19c3.4,4.1,6.1,8.2,8.8,12.2c-1.4,2-2,4.8-3.4,6.8h12.2
		c-12.2-27.2-43.5-56.5-67.4-55.1c-29.3,2-11.6,25.2,4.1,55.1H274.9z"/>
	<polygon class="st2" points="172.1,343.6 169.4,345.6 175.5,354.4 169.4,361.9 172.1,364 180.3,355.1 	"/>
	<polygon class="st2" points="178.2,368.7 175.5,370.8 181.6,379.6 175.5,386.4 178.2,389.1 186.4,380.3 	"/>
	<polygon class="st2" points="373.5,345.6 379.6,354.4 373.5,361.9 376.2,364 384.4,355.1 376.2,343.6 	"/>
	<polygon class="st2" points="326.6,345.6 332.7,354.4 326.6,361.9 329.3,364 337.4,355.1 329.3,343.6 	"/>
	<polygon class="st2" points="364,370.8 370.1,379.6 364,386.4 366.7,389.1 374.9,380.3 366.7,368.7 	"/>
	<polygon class="st2" points="332.7,370.8 338.8,379.6 332.7,386.4 335.4,389.1 343.6,380.3 335.4,368.7 	"/>
	<polygon class="st2" points="317,370.8 323.2,379.6 317,386.4 319.8,389.1 327.9,380.3 319.8,368.7 	"/>
	<polygon class="st2" points="357.8,345.6 364,354.4 357.8,361.9 360.6,364 368.7,355.1 360.6,343.6 	"/>
	<polygon class="st2" points="342.2,345.6 348.3,354.4 342.2,361.9 344.9,364 353.1,355.1 344.9,343.6 	"/>
	<polygon class="st2" points="348.3,370.8 354.4,379.6 348.3,386.4 351,389.1 359.2,380.3 351,368.7 	"/>
	<polygon class="st2" points="189.8,421.1 195.9,430 189.8,436.8 192.5,439.5 200.7,430 192.5,419.1 	"/>
	<polygon class="st2" points="378.3,421.1 384.4,430 378.3,436.8 381,439.5 389.1,430 381,419.1 	"/>
	<polygon class="st2" points="327.9,393.9 324.5,395.9 331.3,404.8 324.5,411.6 327.2,414.3 335.4,404.8 	"/>
	<polygon class="st2" points="374.9,393.9 371.5,395.9 378.3,404.8 372.1,411.6 374.9,414.3 383,404.8 	"/>
	<polygon class="st2" points="362.6,421.1 368.7,430 362.6,436.8 365.3,439.5 373.5,430 365.3,419.1 	"/>
	<polygon class="st2" points="331.3,421.1 337.4,430 331.3,436.8 334,439.5 342.2,430 334,419.1 	"/>
	<polygon class="st2" points="343.6,393.9 340.2,395.9 347,404.8 340.8,411.6 342.9,414.3 351,404.8 	"/>
	<polygon class="st2" points="347,421.1 353.1,430 347,436.8 349.7,439.5 357.8,430 349.7,419.1 	"/>
	<polygon class="st2" points="359.2,393.9 355.8,395.9 362.6,404.8 356.5,411.6 358.5,414.3 366.7,404.8 	"/>
	<polygon class="st2" points="420.4,345.6 426.6,354.4 420.4,361.9 423.2,364 431.3,355.1 423.2,343.6 	"/>
	<path class="st2" d="M442.9,323.2H155.8c-2.7,0-5.4,2-5.4,5.4c0,2.7,2,5.4,5.4,5.4h287.1c2.7,0,5.4-2,5.4-5.4
		C448.3,325.9,445.6,323.2,442.9,323.2z"/>
	<polygon class="st2" points="390.5,393.9 387.8,395.9 393.9,404.8 387.8,411.6 390.5,414.3 398.7,404.8 	"/>
	<polygon class="st2" points="410.9,370.8 417,379.6 410.9,386.4 413.6,389.1 421.8,380.3 413.6,368.7 	"/>
	<polygon class="st2" points="393.9,421.1 400,430 393.9,436.8 396.6,439.5 404.8,430 396.6,419.1 	"/>
	<polygon class="st2" points="403.4,395.9 409.6,404.8 403.4,411.6 406.2,414.3 414.3,404.8 406.2,393.9 	"/>
	<polygon class="st2" points="233.4,393.9 230.6,395.9 236.8,404.8 230.6,411.6 233.4,414.3 241.5,404.8 	"/>
	<polygon class="st2" points="236.8,421.1 243.6,430 236.8,436.8 239.5,439.5 247.6,430 239.5,419.1 	"/>
	<polygon class="st2" points="315.7,421.1 321.8,430 315.7,436.8 318.4,439.5 326.6,430 318.4,419.1 	"/>
	<polygon class="st2" points="249,393.9 246.3,395.9 252.4,404.8 246.3,411.6 249,414.3 257.2,404.8 	"/>
	<polygon class="st2" points="217.7,393.9 215,395.9 221.1,404.8 215,411.6 217.7,414.3 225.9,404.8 	"/>
	<polygon class="st2" points="205.5,421.1 211.6,430 205.5,436.8 208.2,439.5 216.3,430 208.2,419.1 	"/>
	<polygon class="st2" points="252.4,421.1 259.2,430 253.1,436.8 255.1,439.5 263.3,430 255.8,419.1 	"/>
	<polygon class="st2" points="221.1,421.1 227.9,430 221.1,436.8 223.8,439.5 232,430 223.8,419.1 	"/>
	<polygon class="st2" points="202.1,393.9 199.3,395.9 205.5,404.8 199.3,411.6 202.1,414.3 210.2,404.8 	"/>
	<polygon class="st2" points="300,421.1 306.1,430 300,436.8 302.7,439.5 310.9,430 302.7,419.1 	"/>
	<polygon class="st2" points="264.6,393.9 261.9,395.9 268,404.8 261.9,411.6 264.6,414.3 272.8,404.8 	"/>
	<polygon class="st2" points="311.6,393.9 308.9,395.9 315.7,404.8 308.9,411.6 311.6,414.3 319.8,404.8 	"/>
	<polygon class="st2" points="295.9,393.9 293.2,395.9 300,404.8 293.2,411.6 295.9,414.3 304.1,404.8 	"/>
	<polygon class="st2" points="268,421.1 274.9,430 268.7,436.8 270.8,439.5 278.9,430 271.4,419.1 	"/>
	<polygon class="st2" points="283.7,421.1 290.5,430 284.4,436.8 287.1,439.5 294.6,430 287.1,419.1 	"/>
	<polygon class="st2" points="280.3,393.9 277.6,395.9 283.7,404.8 277.6,411.6 280.3,414.3 288.5,404.8 	"/>
</g>
</svg>
