<?xml version="1.0" encoding="utf-8"?>
<!-- Generator: Adobe Illustrator 16.0.0, SVG Export Plug-In . SVG Version: 6.00 Build 0)  -->
<!DOCTYPE svg PUBLIC "-//W3C//DTD SVG 1.1//EN" "http://www.w3.org/Graphics/SVG/1.1/DTD/svg11.dtd">
<svg version="1.1" id="Capa_1" xmlns="http://www.w3.org/2000/svg" xmlns:xlink="http://www.w3.org/1999/xlink" x="0px" y="0px"
	 width="595.279px" height="595.281px" viewBox="0 123.305 595.279 595.281" enable-background="new 0 123.305 595.279 595.281"
	 xml:space="preserve">
<g id="comerç_al_detall_4_">
	<circle cx="297.64" cy="420.945" r="297.64"/>
	<path fill="#FFFFFF" d="M454.038,601.458l-17.224-310.042c0,0-33.761-0.689-78.545-0.689c-1.378-25.492-9.646-75.788-56.496-66.142
		c1.378,2.067,4.823,6.89,6.201,11.023c33.76-4.823,38.583,34.449,39.961,55.119c-12.402,0-24.804,0-37.205,0
		c5.512-77.855-33.071-83.367-44.784-81.989c-48.917,0-57.186,59.941-59.252,81.989c-3.445,0-22.048,0-22.048,0l-24.114,7.579
		l-20.669,294.195l232.875,24.115L454.038,601.458z"/>
	<path d="M207.383,291.417c0,4.823,0,6.89,0,6.89H162.6l23.425-6.89C186.025,291.417,203.939,291.417,207.383,291.417z"/>
	<polygon points="416.834,297.617 412.011,564.253 374.116,616.617 413.389,565.63 454.038,601.458 415.455,563.564 	"/>
	<path d="M222.541,298.306h70.965c0,0,0.689-0.689,0.689-6.89c-35.139,0-53.052,0-71.654,0
		C223.23,294.861,223.23,296.928,222.541,298.306z"/>
	<path d="M265.947,224.585c-32.382,1.378-39.961,46.162-42.027,66.831c12.401,0,25.492,0,43.405,0
		c0.689-26.181,3.445-46.851,15.158-57.186c1.378,1.378,4.822,6.89,5.512,11.024c-7.579,8.268-9.646,26.87-10.335,46.162
		c5.512,0,11.023,0,17.225,0C296.262,270.058,295.573,223.207,265.947,224.585z"/>
	<path d="M416.834,297.617l19.98-6.201c-0.689,0-62.009-0.689-125.396-0.689c0,3.445-0.688,3.445-0.688,6.89h74.41l-11.024,318.31
		l11.713-317.621L416.834,297.617z"/>
</g>
</svg>
