<?xml version="1.0" encoding="utf-8"?>
<!-- Generator: Adobe Illustrator 22.0.0, SVG Export Plug-In . SVG Version: 6.00 Build 0)  -->
<svg version="1.1" id="Capa_1" xmlns="http://www.w3.org/2000/svg" xmlns:xlink="http://www.w3.org/1999/xlink" x="0px" y="0px"
	 viewBox="0 0 595.3 595.3" style="enable-background:new 0 0 595.3 595.3;" xml:space="preserve">
<style type="text/css">
	.st0{fill:none;}
	.st1{fill:#FFFFFF;}
	.st2{fill:#25849E;}
</style>
<g id="comerç_al_detall_4_">
	<circle class="st0" cx="297.6" cy="297.6" r="297.6"/>
	<path class="st1" d="M454,478.2l-17.2-310c0,0-33.8-0.7-78.5-0.7c-1.4-25.5-9.6-75.8-56.5-66.1c1.4,2.1,4.8,6.9,6.2,11
		c33.8-4.8,38.6,34.4,40,55.1c-12.4,0-24.8,0-37.2,0c5.5-77.9-33.1-83.4-44.8-82c-48.9,0-57.2,59.9-59.3,82c-3.4,0-22,0-22,0
		l-24.1,7.6l-20.7,294.2l232.9,24.1L454,478.2z"/>
	<path class="st2" d="M207.4,168.1c0,4.8,0,6.9,0,6.9h-44.8l23.4-6.9C186,168.1,203.9,168.1,207.4,168.1z"/>
	<polygon class="st2" points="416.8,174.3 412,440.9 374.1,493.3 413.4,442.3 454,478.2 415.5,440.3 	"/>
	<path class="st2" d="M222.5,175h71c0,0,0.7-0.7,0.7-6.9c-35.1,0-53.1,0-71.7,0C223.2,171.6,223.2,173.6,222.5,175z"/>
	<path class="st2" d="M265.9,101.3c-32.4,1.4-40,46.2-42,66.8c12.4,0,25.5,0,43.4,0c0.7-26.2,3.4-46.9,15.2-57.2
		c1.4,1.4,4.8,6.9,5.5,11c-7.6,8.3-9.6,26.9-10.3,46.2c5.5,0,11,0,17.2,0C296.3,146.8,295.6,99.9,265.9,101.3z"/>
	<path class="st2" d="M416.8,174.3l20-6.2c-0.7,0-62-0.7-125.4-0.7c0,3.4-0.7,3.4-0.7,6.9h74.4l-11,318.3L385.8,175L416.8,174.3z"/>
</g>
</svg>
