<?xml version="1.0" encoding="utf-8"?>
<!-- Generator: Adobe Illustrator 16.0.0, SVG Export Plug-In . SVG Version: 6.00 Build 0)  -->
<!DOCTYPE svg PUBLIC "-//W3C//DTD SVG 1.1//EN" "http://www.w3.org/Graphics/SVG/1.1/DTD/svg11.dtd">
<svg version="1.1" id="Capa_1" xmlns="http://www.w3.org/2000/svg" xmlns:xlink="http://www.w3.org/1999/xlink" x="0px" y="0px"
	 width="595.279px" height="595.968px" viewBox="0 123.305 595.279 595.968" enable-background="new 0 123.305 595.279 595.968"
	 xml:space="preserve">
<g id="restauració_1_">
	<circle cx="297.985" cy="421.289" r="297.984"/>
	<path fill="#FFFFFF" d="M158.282,340.771c-0.688,9.635-4.129,24.775-28.216,25.463v52.99h8.259v105.98
		c0,2.064-2.753,11.012-14.452,11.012s-14.452-8.258-14.452-11.012v-105.98h8.946v-52.99c-24.086-0.688-27.527-15.828-28.215-25.463
		c-0.688-9.635,0-33.721,0-39.227s3.44-5.505,4.817-5.505c6.193,0,6.193,4.817,6.193,4.817s-0.688,22.022,0,36.474
		s17.204,17.205,17.204,17.205s0-44.732,0-52.302c0-6.882,5.506-6.193,6.194-6.193c0.688,0,6.193-0.688,6.193,6.193
		s0,52.302,0,52.302s17.205-2.753,17.205-17.205c0.688-14.452,0-36.474,0-36.474s0-5.506,5.505-4.817c2.064,0,5.506,0,5.506,5.505
		C158.282,307.05,158.971,330.449,158.282,340.771z"/>
	<path fill="#FFFFFF" d="M302.114,558.925c-75.7,0-137.638-61.936-137.638-137.636c0-75.7,61.938-137.637,137.638-137.637
		S439.75,345.589,439.75,421.289C439.75,496.99,377.814,558.925,302.114,558.925z"/>
	<path fill="#FFFFFF" d="M506.504,306.362v112.862c0,0,0,85.335,0,113.55c0,2.754-4.129,11.699-15.14,11.699
		c-11.012,0-15.141-8.945-15.141-11.699c-0.688-28.215,0-113.55,0-113.55s-16.517-28.904-2.064-68.13
		c3.441-9.635,11.699-28.215,17.205-36.474c0,0,0,0,8.258-12.388C507.193,289.158,506.504,305.674,506.504,306.362z"/>
	<path d="M302.114,338.019c-46.108,0-83.271,37.162-83.271,83.271c0,46.109,37.162,83.271,83.271,83.271s83.27-37.162,83.27-83.271
		C385.383,375.181,347.533,338.019,302.114,338.019z"/>
	<path fill="#FFFFFF" d="M302.114,500.431c-44.044,0-79.83-35.787-79.83-79.83c0-44.044,35.786-79.83,79.83-79.83
		c44.043,0,79.829,35.786,79.829,79.83C381.254,464.644,345.469,500.431,302.114,500.431z"/>
</g>
</svg>
