<?xml version="1.0" encoding="utf-8"?>
<!-- Generator: Adobe Illustrator 22.0.0, SVG Export Plug-In . SVG Version: 6.00 Build 0)  -->
<svg version="1.1" id="Capa_1" xmlns="http://www.w3.org/2000/svg" xmlns:xlink="http://www.w3.org/1999/xlink" x="0px" y="0px"
	 viewBox="0 0 595.3 596" style="enable-background:new 0 0 595.3 596;" xml:space="preserve">
<style type="text/css">
	.st0{fill:#FFFFFF;}
	.st1{fill:#25849E;}
</style>
<g id="restauració_1_">
	<path class="st0" d="M158.3,217.5c-0.7,9.6-4.1,24.8-28.2,25.5v53h8.3v106c0,2.1-2.8,11-14.5,11s-14.5-8.3-14.5-11v-106h8.9v-53
		c-24.1-0.7-27.5-15.8-28.2-25.5c-0.7-9.6,0-33.7,0-39.2s3.4-5.5,4.8-5.5c6.2,0,6.2,4.8,6.2,4.8s-0.7,22,0,36.5s17.2,17.2,17.2,17.2
		s0-44.7,0-52.3c0-6.9,5.5-6.2,6.2-6.2s6.2-0.7,6.2,6.2s0,52.3,0,52.3S148,228.5,148,214c0.7-14.5,0-36.5,0-36.5s0-5.5,5.5-4.8
		c2.1,0,5.5,0,5.5,5.5C158.3,183.7,159,207.1,158.3,217.5z"/>
	<path class="st0" d="M302.1,435.6c-75.7,0-137.6-61.9-137.6-137.6c0-75.7,61.9-137.6,137.6-137.6S439.8,222.3,439.8,298
		C439.8,373.7,377.8,435.6,302.1,435.6z"/>
	<path class="st0" d="M506.5,183.1v112.9c0,0,0,85.3,0,113.5c0,2.8-4.1,11.7-15.1,11.7c-11,0-15.1-8.9-15.1-11.7
		c-0.7-28.2,0-113.5,0-113.5s-16.5-28.9-2.1-68.1c3.4-9.6,11.7-28.2,17.2-36.5c0,0,0,0,8.3-12.4
		C507.2,165.9,506.5,182.4,506.5,183.1z"/>
	<path class="st1" d="M302.1,214.7c-46.1,0-83.3,37.2-83.3,83.3s37.2,83.3,83.3,83.3s83.3-37.2,83.3-83.3
		C385.4,251.9,347.5,214.7,302.1,214.7z"/>
	<path class="st0" d="M302.1,377.1c-44,0-79.8-35.8-79.8-79.8c0-44,35.8-79.8,79.8-79.8c44,0,79.8,35.8,79.8,79.8
		C381.3,341.3,345.5,377.1,302.1,377.1z"/>
</g>
</svg>
