<?xml version="1.0" encoding="utf-8"?>
<!-- Generator: Adobe Illustrator 22.0.0, SVG Export Plug-In . SVG Version: 6.00 Build 0)  -->
<svg version="1.1" id="Capa_1" xmlns="http://www.w3.org/2000/svg" xmlns:xlink="http://www.w3.org/1999/xlink" x="0px" y="0px"
	 viewBox="0 0 595.3 596" style="enable-background:new 0 0 595.3 596;" xml:space="preserve">
<style type="text/css">
	.st0{fill:#FFFFFF;}
	.st1{fill:#25849E;}
</style>
<g id="serveis_4_">
	<path class="st0" d="M185.1,375.1c-8.9-8.3-14.5-22.7-15.1-39.9c-1.4-24.8,6.2-61.9,32.3-86.7l-103.9-64
		c-13.8,57.1-14.5,111.5,0,163.1c15.8,4.1,30.3,10.3,42.7,15.8c15.1,6.9,27.5,12.4,38.5,12.4C181.7,375.7,183.7,375.7,185.1,375.1z"
		/>
	<path class="st0" d="M430.8,348.9c-3.4-53-34.4-86.7-97.7-106c-4.1-1.4-8.9-2.8-13.1-2.8c-2.8,0-5.5,0.7-7.6,2.1l0,0
		c-11,6.9-22.7,12.4-26.8,14.5c-1.4,0.7-2.1,0.7-3.4,1.4c-16.5-4.8-53-3.4-72.3,1.4c-15.8,28.9-24.1,54.4-24.8,77.1
		c0,0.7,0,2.8,0,3.4c2.1,4.8,15.8,15.1,34.4,27.5c-1.4,10.3,4.8,20.6,10.3,28.2c16.5,20,47.5,37.2,68.1,37.2l0,0
		c2.8,0,5.5-0.7,8.3-1.4c0-3.4-0.7-7.6-2.1-11.7c0.7,0.7,2.1,1.4,2.8,2.1c4.1,1.4,8.3,0.7,12.4,0.7l0,0c6.2,0,12.4-0.7,18.6-1.4
		l-30.3-27.5c-1.4-0.7,0.7-2.8,1.4-1.4l31.7,28.9c9.6-1.4,19.3-4.1,26.8-8.3l-48.9-42c-2.1-1.4,0.7-4.1,2.8-2.8l50.2,42.7
		c7.6-4.1,14.5-8.9,20-15.1l-44-37.9c-2.1-1.4,0.7-4.1,2.8-2.8l44,37.9c4.1-4.8,7.6-9.6,10.3-15.1c1.4-3.4,0-7.6-2.8-10.3l-5.5-5.5
		c2.8,1.4,5.5,2.8,7.6,4.1c2.1,0.7,4.8,1.4,6.9,1.4c8.3,0,14.5-6.2,18.6-11.7C430.8,352.4,431.5,350.3,430.8,348.9z"/>
	<path class="st0" d="M498.9,186.5L395,254.6c28.9,26.8,48.9,66.8,47.5,94.3c-0.7,9.6-4.1,17.2-9.6,22.7c2.8,0.7,5.5,1.4,7.6,1.4
		c7.6,0,13.8-2.8,23.4-6.9c8.9-3.4,19.3-8.3,35.1-12.4C509.3,303.5,511.3,237.4,498.9,186.5z"/>
	<path class="st1" d="M301.4,419.8c0.7,2.8,1.4,5.5,1.4,7.6c-1.4,0-2.8,0.7-4.1,0.7c-19.3,0-49.5-16.5-65.4-35.8
		c-4.8-6.2-10.3-14.5-9.6-23.4c2.8,0,5.5-0.7,8.3-0.7c25.5,0,44,14.5,52.3,23.4C292.5,399.8,298.7,410.2,301.4,419.8z"/>
	<path class="st1" d="M332.4,245.7c-3.4-1.4-8.3-2.8-11.7-2.8c-2.1,0-4.1,0.7-6.2,1.4c-8.9,5.5-19.3,11-27.5,14.5l0,0l0,0
		c-1.4,0.7-2.8,1.4-4.1,2.1c-6.9,3.4-10.3,8.3-11.7,15.1c-0.7,8.3-2.8,15.1-4.1,22c-2.1,9.6-4.1,16.5-1.4,20.6
		c1.4,2.1,4.1,3.4,7.6,4.1c0.7,0,0.7,0,1.4,0c8.3,0,15.8-9.6,24.8-31c2.8-6.2,7.6-9.6,12.4-9.6c0.7,0,0.7,0,1.4,0
		c2.1,0,4.1,1.4,5.5,2.8c0,0,11,11.7,26.2,26.2c2.1,2.1,4.1,4.1,6.2,6.2c6.2,6.2,13.1,12.4,20,18.6c13.1,11,26.1,21.3,35.1,24.8
		c2.1,0.7,4.1,1.4,5.5,1.4c5.5,0,10.3-4.1,15.8-10.3c0.7-0.7,0.7-2.1,0.7-2.8C424.6,300,397.1,265.6,332.4,245.7z"/>
</g>
</svg>
