<?xml version="1.0" encoding="utf-8"?>
<!-- Generator: Adobe Illustrator 16.0.0, SVG Export Plug-In . SVG Version: 6.00 Build 0)  -->
<!DOCTYPE svg PUBLIC "-//W3C//DTD SVG 1.1//EN" "http://www.w3.org/Graphics/SVG/1.1/DTD/svg11.dtd">
<svg version="1.1" id="Capa_1" xmlns="http://www.w3.org/2000/svg" xmlns:xlink="http://www.w3.org/1999/xlink" x="0px" y="0px"
	 width="595.279px" height="595.968px" viewBox="0 123.305 595.279 595.968" enable-background="new 0 123.305 595.279 595.968"
	 xml:space="preserve">
<g id="serveis_4_">
	<circle cx="297.985" cy="421.289" r="297.984"/>
	<path fill="#FFFFFF" d="M185.122,498.367c-8.947-8.26-14.452-22.711-15.141-39.916c-1.376-24.773,6.193-61.936,32.345-86.711
		L98.41,307.739c-13.764,57.119-14.452,111.486,0,163.101c15.828,4.129,30.28,10.322,42.668,15.828
		c15.14,6.881,27.527,12.387,38.538,12.387C181.681,499.054,183.745,499.054,185.122,498.367z"/>
	<path fill="#FFFFFF" d="M430.804,472.214c-3.441-52.99-34.409-86.711-97.723-105.98c-4.129-1.376-8.946-2.753-13.075-2.753
		c-2.753,0-5.506,0.688-7.57,2.065l0,0c-11.011,6.882-22.71,12.387-26.839,14.452c-1.376,0.688-2.064,0.688-3.441,1.376
		c-16.516-4.817-52.99-3.441-72.259,1.376c-15.828,28.904-24.087,54.366-24.775,77.077c0,0.688,0,2.752,0,3.441
		c2.065,4.816,15.829,15.139,34.41,27.527c-1.377,10.322,4.816,20.645,10.322,28.215c16.517,19.957,47.485,37.162,68.131,37.162l0,0
		c2.752,0,5.505-0.688,8.258-1.377c0-3.439-0.688-7.568-2.064-11.699c0.688,0.689,2.064,1.377,2.752,2.064
		c4.13,1.377,8.259,0.689,12.388,0.689l0,0c6.193,0,12.388-0.689,18.581-1.377l-30.28-27.527c-1.376-0.688,0.688-2.752,1.377-1.377
		l31.656,28.904c9.635-1.377,19.269-4.129,26.839-8.258l-48.861-41.98c-2.064-1.375,0.688-4.129,2.753-2.752l50.237,42.668
		c7.57-4.129,14.452-8.947,19.958-15.141l-44.044-37.85c-2.064-1.377,0.688-4.129,2.753-2.754l44.044,37.852
		c4.129-4.818,7.569-9.635,10.322-15.141c1.377-3.441,0-7.57-2.753-10.322l-5.505-5.506c2.753,1.377,5.505,2.752,7.569,4.129
		c2.065,0.688,4.817,1.377,6.882,1.377c8.259,0,14.452-6.193,18.581-11.699C430.804,475.656,431.492,473.591,430.804,472.214z"/>
	<path fill="#FFFFFF" d="M498.934,309.803l-103.916,68.13c28.904,26.839,48.861,66.753,47.485,94.281
		c-0.688,9.635-4.129,17.205-9.635,22.711c2.753,0.688,5.506,1.377,7.57,1.377c7.569,0,13.764-2.754,23.397-6.883
		c8.947-3.441,19.27-8.258,35.098-12.387C509.257,426.794,511.322,360.729,498.934,309.803z"/>
	<path d="M301.425,543.097c0.688,2.754,1.376,5.506,1.376,7.57c-1.376,0-2.753,0.689-4.129,0.689
		c-19.269,0-49.549-16.518-65.377-35.787c-4.817-6.193-10.323-14.451-9.635-23.398c2.753,0,5.505-0.688,8.258-0.688
		c25.463,0,44.044,14.451,52.303,23.398C292.479,523.14,298.672,533.464,301.425,543.097z"/>
	<path d="M332.393,368.987c-3.44-1.376-8.258-2.753-11.699-2.753c-2.064,0-4.129,0.688-6.193,1.376
		c-8.946,5.505-19.269,11.011-27.527,14.452l0,0l0,0c-1.376,0.688-2.752,1.376-4.129,2.064c-6.882,3.441-10.322,8.258-11.699,15.14
		c-0.688,8.258-2.753,15.14-4.129,22.022c-2.064,9.634-4.129,16.517-1.376,20.646c1.376,2.064,4.129,3.441,7.569,4.129
		c0.688,0,0.688,0,1.377,0c8.258,0,15.828-9.635,24.774-30.968c2.753-6.194,7.569-9.635,12.387-9.635c0.688,0,0.688,0,1.377,0
		c2.064,0,4.129,1.376,5.505,2.753c0,0,11.012,11.699,26.151,26.151c2.064,2.064,4.129,4.129,6.193,6.193
		c6.194,6.193,13.076,12.387,19.958,18.582c13.075,11.01,26.15,21.332,35.098,24.773c2.064,0.689,4.129,1.377,5.505,1.377
		c5.506,0,10.323-4.129,15.828-10.322c0.688-0.689,0.688-2.064,0.688-2.754C424.61,423.353,397.082,388.944,332.393,368.987z"/>
</g>
</svg>
