<?xml version="1.0" encoding="utf-8"?>
<!-- Generator: Adobe Illustrator 21.1.0, SVG Export Plug-In . SVG Version: 6.00 Build 0)  -->
<svg version="1.1" id="Capa_1" xmlns="http://www.w3.org/2000/svg" xmlns:xlink="http://www.w3.org/1999/xlink" x="0px" y="0px"
	 viewBox="0 0 297.6 126" style="enable-background:new 0 0 297.6 126;" xml:space="preserve">
<style type="text/css">
	.st0{fill:#1E1E1C;}
	.st1{fill:#FFFFFF;}
	.st2{fill:#CF0A2C;}
</style>
<g>
	<g>
		<path class="st0" d="M19.2,108.1h219.5l0.1,0c24.6,0,44.6-20,44.6-44.6c0-24.6-20-44.6-44.6-44.6H19.2V108.1z"/>
		<g>
			<path class="st1" d="M245.1,74.1c0,2-1.5,3.1-3.5,3.1c-1,0-2-0.7-2-1.7c0-1.1,1-1.7,2-1.8l3.5-0.3V74.1z M249.5,79.4V77
				c0,0-0.2,0.1-0.4,0.1c-0.6,0-0.8-0.2-0.8-0.9v-5.1c0-0.9-0.1-1.9-0.4-2.8c-0.8-2.1-2.8-2.8-5.1-2.8c-3.1,0-5.5,1.4-5.7,4.5h3.2
				c0.1-1.3,1-2,2.5-2c1.9,0,2.3,0.9,2.3,2.2V71l-4,0.3c-2.6,0.2-4.6,1.7-4.6,4.3c0,2.2,1.7,4.3,5,4.3c1.9,0,3.5-0.9,4.2-2.1
				c0.1,1,0.9,1.9,2.3,1.9C248.6,79.7,248.9,79.6,249.5,79.4 M233.6,79.5v-9.1c0-2.8-1.7-4.9-4.6-4.9c-1.6,0-3.2,0.7-4,2.1l-0.2-1.8
				h-2.8v13.7h3.3v-5.6c0-1.2,0-2.6,0.5-3.7c0.4-1,1.2-1.7,2.4-1.7c1.7,0,2.3,1,2.3,2.6v8.4H233.6z M215.4,72.7c0,1.3-0.2,2.6-1,3.5
				c-0.4,0.5-1.2,0.9-2.1,0.9c-0.9,0-1.6-0.4-2.1-0.9c-0.8-0.9-1-2.2-1-3.5c0-1.3,0.2-2.6,1-3.5c0.4-0.5,1.2-0.9,2.1-0.9
				c0.9,0,1.6,0.4,2.1,0.9C215.2,70.1,215.4,71.4,215.4,72.7 M218.8,72.7c0-2.3-0.6-3.8-1.6-5.1c-0.9-1.2-2.7-2.1-4.8-2.1
				c-2.1,0-3.8,1-4.8,2.1c-1,1.3-1.6,2.7-1.6,5.1c0,2.3,0.6,3.8,1.6,5.1c1,1.2,2.7,2.1,4.8,2.1c2.1,0,3.8-1,4.8-2.1
				C218.2,76.5,218.8,75,218.8,72.7 M204.2,79.5v-2.8c-0.2,0-0.3,0-0.6,0c-1.1,0-1.3-0.5-1.3-1.3v-15H199V76c0,2.6,1.5,3.7,3.7,3.7
				C203.4,79.7,203.5,79.6,204.2,79.5 M192.7,71.3h-5.9c0-0.9,0.2-1.5,0.7-2.1c0.5-0.6,1.3-1.1,2.3-1.1c0.9,0,1.6,0.3,2.1,0.8
				C192.4,69.5,192.7,70.3,192.7,71.3 M196,72.8c0.1-1.7-0.2-3.3-1.2-4.8c-1.1-1.7-3-2.5-5-2.5c-1.9,0-3.3,0.7-4.4,1.7
				c-1.3,1.3-2,3.3-2,5.5c0,2.2,0.7,4.2,2.1,5.5c1.1,1,2.4,1.7,4.3,1.7c1.7,0,3.5-0.6,4.6-1.9c0.5-0.6,1.1-1.7,1.2-2.5h-3.2
				c-0.1,0.5-0.4,0.9-0.7,1.2c-0.5,0.5-1.1,0.7-2,0.7c-0.9,0-1.6-0.4-2-0.8c-0.7-0.6-1-1.6-1-2.7h9.2C196,73.4,196,72.8,196,72.8
				 M181.5,74.7h-3.2c0,0.5-0.2,0.9-0.4,1.3c-0.4,0.6-1.1,1-2.1,1c-0.9,0-1.6-0.4-2-0.9c-0.8-0.9-0.9-2.2-0.9-3.5
				c0-1.3,0.1-2.6,0.9-3.5c0.4-0.5,1.1-0.8,2-0.8c1,0,1.7,0.4,2.1,1c0.2,0.3,0.4,0.8,0.4,1.3h3.2c0-1.1-0.4-2.2-1.1-3
				c-0.9-1.2-2.6-2.2-4.7-2.2c-2.1,0-3.8,1-4.8,2.2c-1,1.3-1.5,3-1.5,5c0,2,0.5,3.7,1.5,5c0.9,1.2,2.7,2.2,4.8,2.2
				c2.1,0,3.7-1,4.7-2.2C181.1,76.9,181.4,75.8,181.5,74.7 M168.5,68.9v-3.2c-0.3-0.1-0.7-0.1-1-0.1c-1.6,0-3.2,0.7-3.9,2.2
				l-0.3-2.1h-2.8v13.7h3.3v-6.9c0-2.2,1.2-3.9,3.5-3.9C167.7,68.8,168.1,68.8,168.5,68.9 M153.2,74.1c0,2-1.5,3.1-3.5,3.1
				c-1,0-1.9-0.7-1.9-1.7c0-1.1,1-1.7,2-1.8l3.5-0.3V74.1z M157.6,79.4V77c0,0-0.2,0.1-0.4,0.1c-0.6,0-0.8-0.2-0.8-0.9v-5.1
				c0-0.9-0.1-1.9-0.4-2.8c-0.8-2.1-2.8-2.8-5.1-2.8c-3.1,0-5.5,1.4-5.7,4.5h3.2c0.1-1.3,1-2,2.5-2c1.9,0,2.3,0.9,2.3,2.2V71l-4,0.3
				c-2.6,0.2-4.6,1.7-4.6,4.3c0,2.2,1.7,4.3,5,4.3c2,0,3.5-0.9,4.2-2.1c0.1,1,0.9,1.9,2.3,1.9C156.8,79.7,157,79.6,157.6,79.4
				 M139.2,74c0,1.9-1.7,2.5-3.3,2.5h-4.2v-5.2h4.3C137.8,71.3,139.2,72,139.2,74 M138.8,66.1c0,1.8-1.3,2.3-2.8,2.3h-4.3v-4.7h4.2
				C137.4,63.8,138.8,64.4,138.8,66.1 M142.6,74.1c0-1.7-0.9-3.4-2.7-4.2c1.6-0.7,2.3-2.4,2.3-4c0-1.6-0.8-3.2-2.2-4.1
				c-1.3-0.8-2.8-1-4.3-1h-7.4v18.7h7.4c1.8,0,3.5-0.2,5-1.3C142.1,77.3,142.6,75.8,142.6,74.1"/>
			<path class="st1" d="M246.9,47.7h-4.3c0-0.6,0.2-1.1,0.5-1.5c0.3-0.5,0.9-0.8,1.6-0.8c0.7,0,1.2,0.2,1.5,0.6
				C246.7,46.4,246.9,47,246.9,47.7 M249.2,48.8c0-1.2-0.1-2.3-0.9-3.4c-0.8-1.2-2.1-1.8-3.6-1.8c-1.3,0-2.4,0.5-3.1,1.3
				c-0.9,1-1.4,2.4-1.4,3.9c0,1.6,0.5,3,1.5,3.9c0.8,0.7,1.8,1.2,3.1,1.2c1.2,0,2.5-0.4,3.3-1.4c0.4-0.4,0.8-1.2,0.8-1.8h-2.3
				c-0.1,0.4-0.3,0.6-0.5,0.8c-0.3,0.3-0.8,0.5-1.4,0.5c-0.6,0-1.1-0.3-1.5-0.6c-0.5-0.5-0.7-1.2-0.7-1.9h6.6
				C249.2,49.2,249.2,48.8,249.2,48.8 M236.7,48.7c0,1.4-0.4,3.2-2.2,3.2c-0.7,0-1.3-0.3-1.6-0.8c-0.5-0.6-0.6-1.5-0.6-2.4
				c0-0.9,0.1-1.7,0.6-2.4c0.3-0.4,0.8-0.8,1.6-0.8C236.3,45.5,236.7,47.2,236.7,48.7 M238.9,53.6V39.9h-2.4v4.5
				c-0.4-0.5-1.3-0.9-2.6-0.9c-1,0-1.8,0.3-2.4,0.8c-1.2,1-1.8,2.5-1.8,4.4c0,1.9,0.6,3.3,1.7,4.3c0.6,0.5,1.4,0.8,2.4,0.8
				c1.1,0,2.2-0.4,2.8-1.3l0.1,1.1H238.9z M224.9,53.5v-2c-0.6,0.1-1,0.1-1.5,0.1c-0.8,0-1.1-0.3-1.1-1.1v-4.8h2.5v-1.9h-2.5v-3.1
				l-2.4,0.6v2.5h-1.8v1.9h1.8v5c0,1.9,1,3,3,3C223.6,53.7,224.2,53.6,224.9,53.5 M217.3,53.6V47c0-2-1.2-3.5-3.3-3.5
				c-1.1,0-2.3,0.5-2.9,1.5l-0.2-1.3h-2v9.8h2.4v-4c0-0.8,0-1.8,0.3-2.6c0.3-0.7,0.9-1.3,1.7-1.3c1.2,0,1.6,0.7,1.6,1.9v6H217.3z
				 M205.1,47.7h-4.3c0-0.6,0.2-1.1,0.5-1.5c0.3-0.5,0.9-0.8,1.6-0.8c0.7,0,1.2,0.2,1.5,0.6C204.9,46.4,205.1,47,205.1,47.7
				 M207.4,48.8c0-1.2-0.1-2.3-0.8-3.4c-0.8-1.2-2.1-1.8-3.6-1.8c-1.3,0-2.4,0.5-3.1,1.3c-0.9,1-1.4,2.4-1.4,3.9
				c0,1.6,0.5,3,1.5,3.9c0.8,0.7,1.8,1.2,3.1,1.2c1.2,0,2.5-0.4,3.3-1.4c0.4-0.4,0.8-1.2,0.8-1.8h-2.3c-0.1,0.4-0.3,0.6-0.5,0.8
				c-0.3,0.3-0.8,0.5-1.4,0.5c-0.6,0-1.1-0.3-1.5-0.6c-0.5-0.5-0.7-1.2-0.7-1.9h6.6C207.4,49.2,207.4,48.8,207.4,48.8 M197.1,53.6
				V47c0-2-1.1-3.4-3.2-3.4c-1.3,0-2.4,0.6-3,1.6c-0.5-1-1.4-1.6-2.8-1.6c-1.3,0-2.3,0.6-2.8,1.6l-0.2-1.3h-2v9.8h2.3v-5.4
				c0-1.2,0.6-2.6,1.9-2.6c1.2,0,1.5,0.7,1.5,1.9v6.1h2.3v-5.4c0-1.2,0.6-2.6,1.9-2.6c1.2,0,1.5,0.7,1.5,1.9v6.1H197.1z M178.7,49.7
				c0,1.5-1,2.3-2.5,2.3c-0.7,0-1.4-0.5-1.4-1.2c0-0.8,0.7-1.2,1.4-1.3l2.5-0.2V49.7z M181.8,53.5v-1.7c0,0-0.2,0-0.3,0
				c-0.4,0-0.5-0.2-0.5-0.6v-3.7c0-0.7,0-1.4-0.3-2c-0.6-1.5-2-2-3.7-2c-2.2,0-3.9,1-4.1,3.2h2.3c0.1-0.9,0.7-1.4,1.8-1.4
				c1.3,0,1.7,0.6,1.7,1.6v0.6l-2.9,0.2c-1.9,0.1-3.3,1.2-3.3,3.1c0,1.6,1.2,3.1,3.6,3.1c1.4,0,2.5-0.7,3-1.5
				c0.1,0.7,0.6,1.4,1.7,1.4C181.2,53.7,181.4,53.7,181.8,53.5 M172,53.5v-2c-0.6,0.1-1,0.1-1.5,0.1c-0.8,0-1.1-0.3-1.1-1.1v-4.8
				h2.5v-1.9h-2.5v-3.1l-2.4,0.6v2.5h-1.8v1.9h1.8v5c0,1.9,1,3,3,3C170.7,53.7,171.4,53.6,172,53.5 M164.4,53.6V47
				c0-2-1.2-3.5-3.3-3.5c-1.1,0-2.3,0.5-2.9,1.5l-0.2-1.3h-2v9.8h2.4v-4c0-0.8,0-1.8,0.3-2.6c0.3-0.7,0.9-1.3,1.7-1.3
				c1.2,0,1.6,0.7,1.6,1.9v6H164.4z M153.9,53.6v-9.8h-2.4V49c0,0.8-0.2,1.7-0.7,2.2c-0.3,0.3-0.7,0.5-1.2,0.5
				c-1.2,0-1.7-0.7-1.7-1.9v-6h-2.4v6.6c0,2.1,1.3,3.5,3.4,3.5c1.2,0,2.3-0.6,2.8-1.5l0.2,1.3H153.9z M143.4,55V43.8h-2.4v10.7
				c0,0.7-0.4,1.1-1.1,1.1c-0.4,0-0.4,0-1.1-0.1v2c0.4,0.1,0.8,0.2,1.1,0.2c0.3,0,0.6,0,0.8,0C142.4,57.7,143.4,56.6,143.4,55
				 M143.5,39.9H141v2.4h2.5V39.9z M135.8,48.8H132l1.9-5.7L135.8,48.8z M140,53.6l-4.7-13.4h-2.7l-4.7,13.4h2.5l0.9-2.6h5.3
				l0.9,2.6H140z"/>
		</g>
	</g>
	<g>
		<path class="st2" d="M19.2,108.1h46.9h0.1c23.7,0,42.9-20,42.9-44.6S89.9,18.9,66.2,18.9h-47V108.1z"/>
		<g>
			<path class="st1" d="M65.2,90.4l23-23l-23-23l-23,23L65.2,90.4z M88.5,67.4c0,0-2.6,4.6-10.5,12.6C70,88,65.2,90.7,65.2,90.7
				s-4.6-2.6-12.6-10.5c-8.1-8.1-10.8-12.8-10.8-12.8s2.6-4.6,10.5-12.6c8-8.1,12.8-10.8,12.8-10.8s4.6,2.6,12.6,10.5
				C85.8,62.6,88.5,67.4,88.5,67.4 M65.2,90.4l23-23l-23-23l-23,23L65.2,90.4z M88.5,67.4c0,0-2.6,4.6-10.5,12.6
				C70,88,65.2,90.7,65.2,90.7s-4.6-2.6-12.6-10.5c-8.1-8.1-10.8-12.8-10.8-12.8s2.6-4.6,10.5-12.6c8-8.1,12.8-10.8,12.8-10.8
				s4.6,2.6,12.6,10.5C85.8,62.6,88.5,67.4,88.5,67.4 M86.3,67.1h-2.1v-2.1L86.3,67.1z M81.9,62.6v4.4h-2.3v-6.8L81.9,62.6z
				 M77.2,58v9.1h-2.3V55.6L77.2,58z M72.5,53.3v13.8h-2.3V51L72.5,53.3z M67.9,48.6v18.4h-2.3V46.3L67.9,48.6z M44.1,67.7h2.1v2.1
				L44.1,67.7z M48.6,72.2v-4.4h2.3v6.8L48.6,72.2z M53.2,76.8v-9.1h2.3v11.4L53.2,76.8z M57.9,81.5V67.7h2.3v16.1L57.9,81.5z
				 M62.6,86.1V67.7h2.3v20.7L62.6,86.1z M65.6,67.7h4.7v5.8h-4.7V67.7z M70.2,83.8l-4.7,4.6V75.9h4.7V83.8z M60.2,51l4.7-4.6v12.6
				h-4.7V51z M64.9,67.1h-4.7v-5.8h4.7V67.1z M89.7,67.4c0-0.5,0.4-0.9,0.9-0.9c0.5,0,1,0.4,1,0.9c0,0.5-0.4,0.9-1,0.9
				C90.1,68.4,89.7,67.9,89.7,67.4 M38.8,67.4c0-0.5,0.4-0.9,0.9-0.9c0.5,0,1,0.4,1,0.9c0,0.5-0.4,0.9-1,0.9
				C39.3,68.4,38.8,67.9,38.8,67.4 M64.3,92.8c0-0.5,0.4-0.9,0.9-0.9c0.5,0,0.9,0.4,0.9,0.9c0,0.5-0.4,0.9-0.9,0.9
				C64.7,93.8,64.3,93.4,64.3,92.8 M59.4,34c-0.3-0.1-0.6-0.1-0.9-0.1c-1.3,0-2.3,0.8-2.3,1.8c0,0.5,0.2,0.9,0.6,1.2l-1,1
				c-0.6-0.6-1-1.4-1-2.2c0-1.8,1.7-3.2,3.8-3.2c0.5,0,1.1,0.1,1.5,0.3c0.7-0.8,1.8-1.3,3.1-1.3c0.8,0,1.5,0.2,2.1,0.5
				c0.6-0.3,1.3-0.5,2.1-0.5c1.3,0,2.4,0.5,3.1,1.3c0.5-0.2,1-0.3,1.6-0.3c2.1,0,3.8,1.4,3.8,3.2c0,0.9-0.4,1.6-1,2.2l-1-1
				c0.4-0.3,0.6-0.7,0.6-1.2c0-1-1.1-1.8-2.3-1.8c-0.3,0-0.6,0-0.9,0.1c0,0.2,0.1,0.4,0.1,0.6c0,0.6-0.2,1.2-0.6,1.7l-1.1-1.1
				c0.1-0.2,0.2-0.4,0.2-0.7c0-1-1-1.8-2.3-1.8c-0.5,0-1,0.1-1.3,0.3v2.1h-1.5v-2.1c-0.4-0.2-0.9-0.4-1.4-0.4
				c-1.3,0-2.3,0.8-2.3,1.8c0,0.2,0.1,0.5,0.2,0.7l-1.1,1.1c-0.4-0.5-0.6-1.1-0.6-1.7C59.3,34.4,59.3,34.2,59.4,34 M58.1,41.7
				l0.8,1.2c1.8-0.9,4-1.4,6.3-1.4c2.3,0,4.5,0.6,6.3,1.4l0.8-1.2c-2.1-1-4.5-1.6-7.1-1.6C62.6,40.1,60.2,40.7,58.1,41.7 M64.2,29.3
				c0-0.6,0.4-1,1-1c0.5,0,1,0.4,1,1c0,0.5-0.5,1-1,1C64.7,30.3,64.2,29.9,64.2,29.3 M58.1,40.5c-0.4,0-0.7-0.3-0.9-0.7
				c0.3-0.3,0.6-0.5,1-0.5c0.4,0,0.7,0.3,0.9,0.7C58.8,40.3,58.4,40.5,58.1,40.5 M57.4,38.7c-0.1-0.3-0.5-0.5-0.9-0.6
				c-0.2,0.4-0.3,0.8-0.2,1.1c0.2,0.3,0.5,0.5,0.9,0.6C57.5,39.4,57.5,39,57.4,38.7 M61.8,39.4c-0.4-0.1-0.6-0.4-0.7-0.9
				c0.3-0.3,0.7-0.4,1.1-0.3c0.3,0.1,0.6,0.4,0.7,0.9C62.5,39.4,62.2,39.5,61.8,39.4 M60.8,39.6c0.3-0.3,0.4-0.6,0.3-1.1
				c-0.4-0.1-0.8-0.1-1.1,0.2c-0.3,0.3-0.4,0.7-0.3,1.1C60.2,39.9,60.6,39.8,60.8,39.6 M61.5,37.5c-0.1-0.4-0.4-0.6-0.8-0.8
				c-0.3,0.3-0.5,0.7-0.4,1c0.1,0.4,0.4,0.6,0.8,0.8C61.4,38.2,61.6,37.9,61.5,37.5 M72.3,40.5c0.4,0,0.7-0.3,0.9-0.7
				c-0.3-0.3-0.6-0.5-1-0.5c-0.4,0-0.7,0.3-0.8,0.7C71.6,40.3,72,40.5,72.3,40.5 M73,38.7c0.2-0.3,0.5-0.5,0.9-0.6
				c0.3,0.4,0.3,0.8,0.2,1.1c-0.2,0.3-0.5,0.5-0.9,0.6C72.9,39.4,72.9,39,73,38.7 M68.6,39.4c0.4-0.1,0.6-0.4,0.7-0.9
				c-0.3-0.3-0.7-0.4-1.1-0.3c-0.4,0.1-0.6,0.4-0.7,0.9C67.9,39.4,68.2,39.5,68.6,39.4 M69.6,39.6c-0.3-0.3-0.4-0.6-0.3-1.1
				c0.4-0.1,0.8-0.1,1.1,0.2c0.3,0.3,0.4,0.7,0.3,1.1C70.3,39.9,69.9,39.8,69.6,39.6 M68.9,37.5c0.1-0.4,0.4-0.6,0.8-0.8
				c0.3,0.3,0.5,0.7,0.4,1c-0.1,0.4-0.4,0.6-0.8,0.8C69,38.2,68.8,37.9,68.9,37.5 M64.7,39.1c0.3-0.2,0.5-0.6,0.5-1
				c-0.4-0.2-0.8-0.2-1.1-0.1c-0.3,0.2-0.5,0.5-0.5,1C64,39.2,64.4,39.3,64.7,39.1 M65.8,39.1c-0.3-0.2-0.5-0.6-0.5-1
				c0.4-0.2,0.8-0.2,1.1-0.1c0.3,0.2,0.5,0.5,0.5,1C66.5,39.2,66.1,39.3,65.8,39.1 M64.6,37.2c0-0.4,0.2-0.7,0.6-0.9
				c0.4,0.2,0.6,0.6,0.6,0.9c0,0.4-0.2,0.7-0.6,0.9C64.9,37.9,64.6,37.5,64.6,37.2"/>
			<polygon class="st1" points="72.6,81.5 72.6,81.5 72.6,75.9 78.2,75.9 			"/>
			<polygon class="st1" points="52.3,58.9 57.9,53.3 57.9,58.9 			"/>
			<polygon class="st1" points="72.6,67.7 72.6,70.6 72.6,73.5 76.5,73.5 80.5,73.5 86.3,67.7 			"/>
			<polygon class="st1" points="50,61.3 44.1,67.1 57.9,67.1 57.9,61.3 			"/>
		</g>
	</g>
</g>
</svg>
